<?xml version="1.0" encoding="UTF-8" standalone="no"?>
<svg
   xmlns:dc="http://purl.org/dc/elements/1.1/"
   xmlns:cc="http://creativecommons.org/ns#"
   xmlns:rdf="http://www.w3.org/1999/02/22-rdf-syntax-ns#"
   xmlns:svg="http://www.w3.org/2000/svg"
   xmlns="http://www.w3.org/2000/svg"
   xmlns:sodipodi="http://sodipodi.sourceforge.net/DTD/sodipodi-0.dtd"
   xmlns:inkscape="http://www.inkscape.org/namespaces/inkscape"
   width="175.9138mm"
   height="175.9269mm"
   viewBox="0 0 175.9138 175.9269"
   version="1.1"
   id="svg8"
   inkscape:version="1.0.2 (e86c870879, 2021-01-15)"
   sodipodi:docname="logo.svg">
  <defs
     id="defs2" />
  <sodipodi:namedview
     id="base"
     pagecolor="#ffffff"
     bordercolor="#666666"
     borderopacity="1.0"
     inkscape:pageopacity="0.0"
     inkscape:pageshadow="2"
     inkscape:zoom="0.35"
     inkscape:cx="356.18283"
     inkscape:cy="334.3938"
     inkscape:document-units="mm"
     inkscape:current-layer="layer1"
     inkscape:document-rotation="0"
     showgrid="false"
     inkscape:window-width="1254"
     inkscape:window-height="967"
     inkscape:window-x="274"
     inkscape:window-y="139"
     inkscape:window-maximized="0" />
  <metadata
     id="metadata5">
    <rdf:RDF>
      <cc:Work
         rdf:about="">
        <dc:format>image/svg+xml</dc:format>
        <dc:type
           rdf:resource="http://purl.org/dc/dcmitype/StillImage" />
        <dc:title />
      </cc:Work>
    </rdf:RDF>
  </metadata>
  <g
     inkscape:label="Ebene 1"
     inkscape:groupmode="layer"
     id="layer1"
     transform="translate(-11.593292,-59.691641)">
    <path
       style="fill:#324670;stroke:none;stroke-width:0.352778"
       d="m 98.727376,59.737809 c -3.81776,0.432545 -6.86294,3.41133 -10.58333,3.899327 -4.16631,0.546488 -8.13964,-2.25299 -12.34722,-0.695748 -3.59304,1.329796 -5.71924,5.041336 -9.17223,6.527201 -3.80929,1.639111 -8.31426,0.0063 -11.98915,2.485778 -3.12702,2.109717 -4.14867,6.289852 -7.12223,8.534718 -3.07513,2.321631 -7.5807,2.123405 -10.40599,4.948696 -2.82529,2.825292 -2.62707,7.330864 -4.9487,10.405993 -2.42062,3.206397 -6.94806,4.192056 -8.95907,7.822846 -1.93908,3.50062 -0.54836,7.7724 -2.06143,11.28854 -1.58764,3.6897 -5.65008,5.86563 -6.74986,9.87778 -1.08429,3.9557 1.42906,7.74876 0.91841,11.64167 -0.49175,3.74897 -3.60943,6.67738 -3.71014,10.58333 -0.11841,4.59246 3.14357,7.67504 3.71014,11.99445 0.47604,3.62902 -1.84782,7.25734 -1.06322,10.93611 0.94451,4.42842 5.19704,6.63822 6.89467,10.58333 1.45334,3.3775 0.17054,7.53181 1.87551,10.93611 1.88793,3.76979 6.2761,4.78155 8.89131,7.82603 2.41233,2.80846 2.35631,7.17973 4.65906,10.13283 2.69138,3.45123 7.65934,3.13867 10.97788,5.57107 3.11327,2.28247 4.06083,6.69114 7.44256,8.75665 3.59339,2.19428 7.97983,0.68862 11.64025,2.26378 3.94512,1.69756 6.15492,5.9503 10.58334,6.89469 3.76378,0.80292 7.61047,-1.78047 11.28889,-0.99942 4.56776,0.96978 7.7223,4.20793 12.700004,3.58634 3.40607,-0.42545 6.15703,-3.20817 9.525,-3.6502 4.1663,-0.54645 8.13964,2.2532 12.34722,0.69603 3.59304,-1.32997 5.71923,-5.04154 9.17222,-6.52744 3.8093,-1.63901 8.31427,-0.006 11.98916,-2.48568 3.12702,-2.10961 4.14866,-6.29002 7.12223,-8.53475 3.07516,-2.32163 7.58084,-2.12337 10.40588,-4.94877 2.8254,-2.82504 2.62714,-7.33072 4.94877,-10.40588 2.42076,-3.2064 6.94796,-4.19206 8.95915,-7.82285 1.93922,-3.50062 0.54821,-7.7724 2.06128,-11.28854 1.58785,-3.6897 5.65009,-5.86563 6.75005,-9.87778 1.08408,-3.95569 -1.42911,-7.74876 -0.91864,-11.64166 0.52035,-3.96523 3.94794,-7.12365 3.94794,-11.28889 0,-4.16525 -3.42759,-7.32367 -3.94794,-11.28889 -0.49283,-3.75956 1.88807,-7.46549 1.00577,-11.28889 -0.97402,-4.22311 -5.19853,-6.43361 -6.83718,-10.23056 -1.45627,-3.37538 -0.17075,-7.53216 -1.87537,-10.93611 -1.95192,-3.89714 -6.65621,-4.846112 -9.144,-8.175276 -2.12972,-2.849951 -2.1777,-6.925416 -4.40655,-9.783446 -2.68958,-3.449038 -7.66268,-3.116333 -10.94916,-5.572301 -3.08928,-2.308473 -4.09223,-6.691948 -7.47113,-8.755487 -3.5934,-2.194489 -7.98195,-0.685235 -11.64026,-2.263951 -3.79694,-1.638406 -6.00745,-5.862921 -10.23055,-6.837243 -3.90384,-0.900635 -7.84331,1.748529 -11.64167,0.942114 -3.96487,-0.841809 -7.35965,-4.320773 -11.641674,-3.835651 m -0.70555,2.791196 c 4.426654,-0.953816 7.899754,3.050244 11.994444,3.810868 3.57505,0.664104 7.33602,-1.899532 10.93611,-1.225197 3.84634,0.720442 6.27945,4.69011 9.525,6.553623 3.41877,1.963103 8.14917,0.132151 11.64026,2.141432 3.4223,1.9697 4.37444,6.482257 7.44255,8.81373 3.0159,2.291539 7.76147,2.019794 10.41295,4.890171 2.72415,2.949434 2.30293,7.921978 5.15196,10.746317 2.57493,2.552701 6.75252,3.797301 8.44762,7.170561 1.67922,3.34116 0.18803,7.62106 1.7653,10.93576 1.65171,3.47063 5.69736,5.67161 6.66503,9.525 0.93028,3.70417 -1.83197,7.59813 -1.14653,11.28889 0.68439,3.68441 3.93771,6.71513 3.93771,10.58334 0,3.96875 -3.62585,7.08871 -3.98357,10.93611 -0.34819,3.7405 2.13219,7.5505 1.06327,11.28889 -1.08796,3.80577 -5.33717,5.89633 -6.68619,9.525 -1.27141,3.42053 0.091,7.68562 -1.80093,10.93082 -1.98297,3.40113 -6.4897,4.3882 -8.8138,7.44643 -2.35021,3.09316 -2.0126,8.15517 -5.20489,10.67823 -2.91606,2.3047 -7.34695,2.14701 -10.1286,4.5974 -2.73826,2.41195 -3.84281,6.70243 -7.12576,8.53335 -3.49638,1.9498 -8.23595,0.20637 -11.63638,2.159 -3.12772,1.79599 -5.50756,5.65926 -9.17222,6.42549 -3.66077,0.76518 -7.30709,-1.48061 -10.93611,-1.143 -3.83505,0.35666 -6.96666,3.96628 -10.936114,3.96628 -3.84563,0 -6.90845,-3.26496 -10.58333,-3.92148 -3.81812,-0.68227 -7.77205,2.07257 -11.64167,1.01495 -3.65478,-0.99907 -5.82436,-4.93925 -9.17222,-6.53239 -3.42512,-1.62983 -7.87365,-0.0674 -11.2836,-1.96885 -3.40607,-1.89936 -4.40584,-6.48547 -7.44644,-8.79617 -2.83898,-2.15723 -6.98242,-2.10149 -9.80796,-4.33458 -3.19232,-2.52306 -2.85461,-7.58507 -5.20481,-10.67823 -2.24247,-2.95098 -6.55363,-3.96134 -8.59244,-7.10212 -2.22874,-3.43359 -0.48655,-8.08426 -2.17275,-11.62791 -1.59304,-3.34786 -5.53304,-5.51744 -6.53211,-9.17222 -1.05773,-3.86962 1.69704,-7.82356 1.0148,-11.64167 -0.69155,-3.86997 -4.34681,-7.1695 -3.88301,-11.28889 0.40874,-3.63044 3.5937,-6.63857 3.92792,-10.23055 0.35634,-3.83011 -2.2667,-7.82532 -0.95462,-11.64167 1.26175,-3.66995 5.66766,-5.80426 6.68536,-9.52501 0.9484,-3.4671 -0.12669,-7.77769 1.91441,-10.92235 1.96734,-3.03071 5.98682,-4.12186 8.32976,-6.781447 2.61927,-2.973564 2.17188,-7.979905 5.15285,-10.733476 2.6471,-2.445174 6.83987,-2.443445 9.78852,-4.369153 3.34716,-2.186059 4.26509,-6.995231 7.78052,-9.044553 3.27589,-1.909974 7.49335,-0.523452 10.93082,-1.801178 3.51472,-1.306477 5.61869,-5.261398 9.17222,-6.596062 3.75285,-1.409489 7.82638,1.328349 11.64167,0.973384 3.33975,-0.310727 6.25545,-3.152352 9.525,-3.85687 m -70.90834,91.937275 c 5.78647,-0.74719 11.52991,-2.0634 17.28611,-3.02896 1.72032,-0.28892 5.17949,-0.27728 6.49006,-1.50706 1.75718,-1.64853 1.50953,-7.59989 1.88983,-9.92787 1.53317,-9.38495 2.57845,-18.87433 4.32011,-28.22223 h 0.35278 l 5.53544,10.58334 12.80901,23.63611 39.511114,-7.05556 c -5.39856,7.6641 -13.82713,14.17991 -20.461114,20.81389 -1.68452,1.68452 -6.8393,5.27297 -6.94902,7.76111 -0.11747,2.67124 3.59622,7.20796 4.88139,9.525 4.23545,7.63623 10.373434,16.02952 13.003744,24.34167 -8.129774,-4.72687 -17.285414,-7.989 -25.752784,-12.08546 -2.31175,-1.11866 -7.30497,-4.66372 -9.87778,-4.16631 -2.89666,0.56022 -6.42831,5.74676 -8.46666,7.78511 l -7.05521,7.05555 c -0.74048,0.74577 -2.32516,1.91594 -1.99496,3.14325 0.32421,1.2058 2.11526,2.07998 3.05294,2.75167 2.87091,2.05634 5.7651,3.96346 8.81945,5.74252 14.84559,8.6487 32.41816,10.17375 49.036114,7.8112 40.67069,-5.78203 65.27906,-46.78574 58.81335,-85.41809 -1.03399,-6.17573 -3.37397,-12.4146 -6.16232,-17.99167 C 147.74057,79.104785 100.93683,65.272932 64.860716,84.436069 38.615806,98.377071 25.879296,125.72123 27.113486,154.46628 M 122.01072,83.557934 c 2.77636,4.752058 3.73062,5.258541 9.17222,4.233334 l -3.7331,4.586111 1.96921,5.291667 -5.99722,-1.915936 -4.58611,3.327047 0.32914,-5.505626 -4.91526,-3.313819 6.35001,-0.705555 1.41111,-5.997223 M 92.730156,95.552379 c 1.40053,2.399595 2.69981,7.681031 5.07647,9.160931 2.303294,1.4344 8.494894,-0.83749 11.151314,-1.04704 l -7.52652,8.11389 3.99874,9.525 -10.080984,-4.35152 -8.26346,6.82097 1.38747,-10.44576 -9.14858,-5.78203 c 2.4518,-0.0504 9.4809,-0.004 10.94034,-2.1971 1.83233,-2.75413 0.73731,-6.931727 2.46521,-9.797341 m -63.85278,69.850011 c 2.75562,9.78288 7.09665,23.17044 15.52222,29.63333 l 2.26639,-14.81667 0.51456,-5.85963 -4.89761,-2.69805 z"
       id="path26" />
    <path
       style="fill:#ffffff;stroke:none;stroke-width:2.85714"
       d="m 311.89712,646.94946 c -14.3328,-6.73897 -17.7754,-7.22666 -39.15923,-5.54757 -25.34404,1.99002 -34.15697,-0.51409 -45.13323,-12.8242 -7.71516,-8.65272 -21.6593,-14.18389 -35.75766,-14.18389 -16.1256,0 -26.46466,-6.1354 -36.05753,-21.3972 -5.73177,-9.11897 -12.02401,-14.74177 -21.03521,-18.79729 -32.30903,-14.54068 -32.54798,-14.73425 -38.559961,-31.23408 -7.7569,-21.28874 -9.238886,-23.29043 -26.1918,-35.37666 -16.077072,-11.46183 -20.962526,-20.86366 -20.962526,-40.34146 0,-8.24854 -2.210943,-15.04785 -7.061589,-21.71651 -24.407074,-33.55471 -22.805393,-29.12834 -18.601677,-51.4072 3.627228,-19.22357 3.500325,-20.72157 -2.957196,-34.90754 -3.710883,-8.15215 -6.74706,-19.96492 -6.74706,-26.25063 0,-6.28572 3.036177,-18.09849 6.74706,-26.25063 6.458482,-14.18809 6.584856,-15.68169 2.954673,-34.92092 l -3.792385,-20.09887 8.300515,-11.47962 c 4.565284,-6.31379 11.193373,-15.53951 14.729087,-20.5016 4.35178,-6.10737 6.470203,-13.26982 6.55744,-22.17088 0.184343,-18.80892 4.782035,-26.95479 23.920052,-42.37989 13.839483,-11.15452 17.846531,-16.4121 22.090851,-28.98503 6.814006,-20.18511 8.626046,-22.03888 28.695636,-29.356621 12.44744,-4.538566 19.50068,-9.296169 26.10958,-17.611629 20.40019,-25.667974 21.90141,-26.651943 43.98183,-28.827691 18.72461,-1.845078 21.86772,-3.132092 35.93826,-14.715735 16.57783,-13.647776 19.35332,-14.296646 47.81238,-11.177862 16.77369,1.838201 20.18591,1.282445 33.47646,-5.452381 18.44108,-9.3448099 22.96537,-9.3448099 41.40645,0 13.29055,6.734826 16.70278,7.290582 33.47646,5.452381 27.18049,-2.978668 31.38086,-2.349854 42.3468,6.339494 5.44992,4.318473 12.91446,10.17512 16.58786,13.014771 4.09166,3.162977 14.63374,6.012974 27.21403,7.357174 17.18668,1.836395 21.51291,3.39906 26.53194,9.583529 3.29826,4.064146 10.0716,12.436149 15.05186,18.604449 6.5422,8.102854 13.84983,12.963374 26.33334,17.515091 19.55597,7.13046 19.20646,6.76714 28.89734,30.03983 5.66943,13.61514 10.37189,19.61784 22.79646,29.09969 17.65129,13.47065 22.60263,22.48741 22.78897,41.50043 0.0911,9.31626 2.18717,15.97865 7.19046,22.85714 24.29988,33.40738 22.6934,28.94314 18.73751,52.0695 -3.47128,20.29323 -3.36317,21.28324 3.88657,35.58991 9.36938,18.48957 9.36266,27.1962 -0.0368,47.72748 -7.27357,15.8876 -7.38795,16.98963 -3.88657,37.45872 3.99937,23.38057 5.62014,18.84905 -18.70063,52.28514 -5.00329,6.87849 -7.09917,13.54089 -7.19046,22.85714 -0.182,18.57337 -4.92866,27.42835 -21.29971,39.73535 -13.59689,10.22148 -17.3478,15.62145 -29.16358,41.985 -4.43091,9.88628 -7.57337,12.40342 -23.28591,18.65231 -17.34546,6.89829 -22.97351,11.63934 -40.40766,34.03934 -5.68865,7.309 -9.76043,9.45329 -20,10.53249 -27.49745,2.89814 -31.48897,4.36931 -46.32394,17.07403 L 419.04,643.34189 393.32572,641.47806 c -23.77106,-1.723 -26.90183,-1.30752 -41.42858,5.49803 -19.40191,9.08948 -20.61308,9.08868 -40,-0.0257 z m 91.86148,-45.07577 c 101.34614,-22.43266 180.24054,-106.3824 203.04109,-216.05132 4.61328,-22.18957 5.38828,-34.44243 4.24694,-67.14286 -1.6282,-46.64889 -5.59797,-63.65116 -23.6486,-101.28563 C 548.21412,135.69784 473.9046,80.002614 382.88654,64.111866 348.67237,58.138446 294.293,60.022463 262.90735,68.268643 155.37772,96.520677 81.170579,177.94595 62.227441,288.4687 c -2.538822,14.81261 -4.61604,37.13059 -4.61604,49.59544 0,22.04315 0.175943,22.62232 6.428572,21.16117 3.535714,-0.82622 23.142857,-4.33088 43.571427,-7.78811 20.42857,-3.45723 38.92327,-7.9612 41.09932,-10.00886 2.50477,-2.35694 7.45996,-28.18023 13.50488,-70.37876 5.25162,-36.66068 9.58152,-67.94149 9.62199,-69.51292 0.0648,-2.51562 47.10869,82.55065 63.60372,115.01025 4.14703,8.16072 7.62974,11.72855 10.60155,10.86069 5.85485,-1.70977 133.60363,-24.44237 137.35703,-24.44237 6.35474,0 -8.75666,16.6836 -48.47263,53.51571 -22.88086,21.21946 -43.20754,41.5642 -45.17039,45.21057 -4.71445,8.75795 -3.40556,11.78886 26.46096,61.27372 20.8302,34.51286 35.67929,62.48211 35.67929,67.20431 0,1.05155 -42.07915,-18.28988 -87.39572,-40.17094 -37.77155,-18.23797 -40.41995,-19.05666 -48.16093,-14.88791 -11.78394,6.34602 -62.10786,61.59091 -61.09509,67.06931 1.50012,8.1146 51.50914,39.41783 78.6782,49.24874 38.34032,13.87317 62.00836,17.31126 109.40211,15.89206 22.78571,-0.68231 49.98054,-3.13351 60.43291,-5.44711 z M 130.11008,481.71803 c 6.90852,-44.3572 6.51297,-49.04166 -4.64154,-54.9686 -20.16689,-10.71569 -60.488227,-29.24834 -61.479233,-28.25734 -2.251406,2.2514 17.337452,55.46457 26.889206,73.04457 9.231567,16.99071 28.023587,40 32.668567,40 1.05535,0 4.0087,-13.41837 6.563,-29.81863 z"
       id="path8"
       transform="matrix(0.26458333,0,0,0.26458333,11.593292,59.691641)" />
    <path
       style="fill:#ffffff;stroke-width:2.85714"
       d="m 311.89712,646.94946 c -14.3328,-6.73897 -17.7754,-7.22666 -39.15923,-5.54757 -25.74646,2.02162 -33.7135,-0.3652 -46.3429,-13.88383 -7.52359,-8.05332 -21.58219,-13.02475 -37.35502,-13.20957 -13.74042,-0.16086 -21.44442,-5.07198 -33.79881,-21.54532 -6.29496,-8.39368 -15.16429,-16.15306 -21.95313,-19.2058 -30.0888,-13.52997 -30.83822,-14.16291 -37.6278,-31.78003 -7.11336,-18.45725 -14.224057,-27.4108 -29.042183,-36.56888 -11.433434,-7.06626 -17.578074,-20.15503 -17.578074,-37.44323 0,-8.7996 -2.100917,-15.41472 -7.061589,-22.23463 -24.376878,-33.5132 -22.795638,-29.18006 -18.655415,-51.1224 3.647682,-19.33197 3.550009,-20.21543 -4.125997,-37.31986 -8.911851,-19.85823 -8.696811,-27.6834 1.384295,-50.37374 6.270755,-14.11406 6.40428,-15.78143 2.79544,-34.90755 -4.203716,-22.27884 -5.805397,-17.85247 18.601677,-51.4072 4.850646,-6.66864 7.061589,-13.46796 7.061589,-21.71651 0,-19.48945 4.773943,-28.35665 22.805623,-42.35951 14.191608,-11.02078 17.7395,-15.69553 23.12784,-30.47357 7.005344,-19.21282 11.031524,-23.0526 32.108794,-30.622286 9.59491,-3.445914 17.14981,-8.764091 23.10686,-16.265771 20.15215,-25.377517 21.73037,-26.407866 43.7777,-28.580354 18.72461,-1.845078 21.86772,-3.132092 35.93826,-14.715735 16.57783,-13.647776 19.35332,-14.296646 47.81238,-11.177862 16.77369,1.838201 20.18591,1.282445 33.47646,-5.452381 18.44108,-9.3448099 22.96537,-9.3448099 41.40645,0 13.29055,6.734826 16.70278,7.290582 33.47646,5.452381 27.18049,-2.978668 31.38086,-2.349854 42.3468,6.339494 5.44992,4.318473 12.91446,10.17512 16.58786,13.014771 4.09166,3.162977 14.63374,6.012974 27.21403,7.357174 17.18668,1.836395 21.51291,3.39906 26.53194,9.583529 3.29826,4.064146 10.15577,12.536429 15.23894,18.827291 6.70049,8.292469 13.37915,12.776226 24.28572,16.304389 19.18048,6.20469 22.07751,9.0803 30.75788,30.53047 5.7472,14.20196 10.12717,19.92823 22.41617,29.30636 18.65249,14.23429 23.06583,21.74905 23.19686,39.49824 0.11086,15.01539 4.67177,26.06598 14.38697,34.85812 12.95926,11.72797 15.27226,20.38682 11.4362,42.81254 -3.38057,19.76296 -3.25254,20.89792 3.96377,35.13863 9.3878,18.52591 9.38015,28.33785 -0.0377,48.24537 -7.28569,15.40068 -7.39411,16.43123 -3.88657,36.93654 4.00026,23.38563 5.62128,18.85277 -18.69989,52.28943 -5.26663,7.24054 -7.08734,13.41366 -7.16285,24.28571 -0.12772,18.37086 -3.9356,25.16823 -21.52938,38.43009 -13.40694,10.10591 -17.16091,15.53197 -28.96151,41.86169 -4.43091,9.88628 -7.57337,12.40342 -23.28591,18.65231 -11.6462,4.63169 -21.14958,10.78297 -26.4848,17.14286 -23.64655,28.188 -24.02903,28.49054 -36.01915,28.49054 -19.86934,0 -28.20774,3.06846 -43.99025,16.18803 l -15.34203,12.7534 -25.71429,-1.82052 c -23.6874,-1.677 -26.95294,-1.24337 -41.42857,5.5014 -19.41326,9.04538 -20.62437,9.04335 -40,-0.0666 z m 65.78922,-41.19009 c 109.19638,-13.17057 194.80243,-90.61894 225.7336,-204.22271 8.82363,-32.40732 10.9092,-91.88106 4.36732,-124.54175 C 588.16394,179.02441 509.82849,97.446669 409.03997,70.021494 375.90586,61.005494 323.82452,57.760166 291.89712,62.722003 156.88709,83.703926 65.260647,187.35662 58.406244,326.85929 l -1.665371,33.89402 8.292408,-1.70942 c 4.560823,-0.9402 23.708918,-4.42 42.551319,-7.73289 18.8424,-3.31289 36.46565,-7.20446 39.16276,-8.64791 2.69712,-1.44343 5.61902,-6.7874 6.49312,-11.87543 2.61066,-15.19643 18.62193,-126.15984 18.65004,-129.251 0.0143,-1.57143 15.31434,25.42857 34.0001,60 25.09007,46.42034 35.47629,63.08657 39.7187,63.73454 3.15951,0.48257 35.52952,-4.46183 71.93334,-10.9876 36.40383,-6.52577 66.90463,-11.14914 67.77957,-10.2742 1.58509,1.58509 -24.90243,28.69377 -70.03754,71.68 -13.06543,12.4434 -24.95847,24.87246 -26.42899,27.62014 -3.67316,6.86337 -1.36158,11.91846 26.96096,58.95986 26.54146,44.0832 31.46097,53.04226 34.45126,62.74031 2.128,6.90152 9.95548,10.1086 -91.71864,-37.57891 -31.80569,-14.9176 -35.38454,-15.98806 -41.8953,-12.53111 -9.53643,5.06345 -61.89972,61.19985 -61.89972,66.36 0,8.9046 58.86759,44.20931 90.97592,54.56108 37.38994,12.05454 84.80471,15.62572 131.95616,9.9386 z m -247.59777,-124.937 c 7.90867,-51.69934 9.94919,-46.92231 -27.94763,-65.42766 -17.937321,-8.75894 -33.856179,-15.46022 -35.375236,-14.89171 -3.574148,1.33763 8.358172,38.00134 20.824823,63.98717 8.921634,18.59649 30.438583,47.04649 35.581603,47.04649 1.21987,0 4.33227,-13.82143 6.91644,-30.71429 z"
       id="path10"
       transform="matrix(0.26458333,0,0,0.26458333,11.593292,59.691641)" />
    <path
       style="fill:#ffffff;stroke-width:2.85714"
       d="m 290.16342,217.93997 1.86154,-16.45382 -14.73154,-9.05935 -14.73154,-9.05935 11.09619,-1.7943 c 6.1029,-0.98686 13.76862,-2.33225 17.03493,-2.98974 6.5701,-1.32255 12.63269,-12.19824 12.63269,-22.6618 0,-15.59284 3.45102,-16.2271 10.10841,-1.8578 8.51458,18.37782 14.60342,21.63123 33.07109,17.67063 7.83454,-1.68021 15.09729,-3.05493 16.13944,-3.05493 1.04215,0 -4.23743,6.22587 -11.73239,13.83525 l -13.62722,13.83525 7.14882,16.16475 c 3.93186,8.89062 6.61338,16.16475 5.95894,16.16475 -0.65443,0 -8.4768,-3.22262 -17.38304,-7.16138 l -16.19316,-7.16139 -12.2263,10.01853 c -6.72446,5.51019 -13.14026,10.01853 -14.25734,10.01853 -1.11708,0 -1.19337,-7.40422 -0.16952,-16.45383 z"
       id="path11"
       transform="matrix(0.26458333,0,0,0.26458333,11.593292,59.691641)" />
    <path
       style="fill:#ffffff;stroke-width:2.85714"
       d="m 407.23762,136.80996 c 1.62687,-8.67198 0.94245,-10.48219 -5.20765,-13.77363 -8.67491,-4.64267 -6.84018,-8.64253 3.96434,-8.64253 6.74793,0 8.33752,-1.45927 9.8551,-9.04718 l 1.80944,-9.047185 6.58899,6.190035 c 3.62395,3.40453 10.18972,6.19004 14.59059,6.19004 7.93197,0 7.95982,0.0638 3.20073,7.32706 -3.22511,4.92214 -4.19624,10.07995 -2.95873,15.71429 2.06501,9.40194 1.88041,9.51925 -8.66875,5.50846 -6.1734,-2.34712 -9.18538,-1.72974 -16.30941,3.34302 l -8.73769,6.22179 z"
       id="path13"
       transform="matrix(0.26458333,0,0,0.26458333,11.593292,59.691641)" />
  </g>
</svg>
